<?xml version="1.0" encoding="UTF-8"?>
<!DOCTYPE svg PUBLIC "-//W3C//DTD SVG 1.1//EN" "http://www.w3.org/Graphics/SVG/1.1/DTD/svg11.dtd">
<!-- Creator: CorelDRAW 2020 (64-Bit) -->
<svg xmlns="http://www.w3.org/2000/svg" xml:space="preserve" width="27.4548mm" height="27.7157mm" version="1.1" style="shape-rendering:geometricPrecision; text-rendering:geometricPrecision; image-rendering:optimizeQuality; fill-rule:evenodd; clip-rule:evenodd"
viewBox="0 0 997.05 1006.52"
 xmlns:xlink="http://www.w3.org/1999/xlink"
 xmlns:xodm="http://www.corel.com/coreldraw/odm/2003">
 <defs>
  <style type="text/css">
   <![CDATA[
    .str0 {stroke:#EC0B43;stroke-width:7.26;stroke-miterlimit:22.9256}
    .fil0 {fill:#EC0B43}
   ]]>
  </style>
 </defs>
 <g id="Camada_x0020_1">
  <metadata id="CorelCorpID_0Corel-Layer"/>
  <g id="_1669014136208">
   <path class="fil0" d="M501.74 616.63c89.48,132.98 76.11,262.5 -2.12,389.89 -80.81,-129.98 -90.36,-259.92 2.12,-389.89z"/>
   <path class="fil0" d="M501.58 632.48c82.2,122.12 69.92,241.13 -1.92,358.13 -74.23,-119.39 -83.01,-238.78 1.92,-358.13z"/>
  </g>
  <g id="_1669014134624">
   <path class="fil0" d="M502.16 389.89c89.48,-132.98 76.11,-262.5 -2.12,-389.89 -80.81,129.98 -90.36,259.92 2.12,389.89z"/>
   <path class="fil0" d="M502.01 374c82.2,-122.12 69.92,-241.13 -1.92,-358.13 -74.23,119.39 -83.01,238.78 1.92,358.13z"/>
  </g>
  <g id="_1669014137696">
   <path class="fil0" d="M389.89 503.12c-132.98,-89.48 -262.5,-76.11 -389.89,2.12 129.98,80.81 259.92,90.36 389.89,-2.12z"/>
   <path class="fil0" d="M373.99 503.28c-122.12,-82.2 -241.13,-69.92 -358.13,1.92 119.39,74.23 238.78,83.01 358.13,-1.92z"/>
  </g>
  <g id="_1669014071840">
   <path class="fil0" d="M607.15 502.01c132.98,-89.48 262.5,-76.11 389.89,2.12 -129.98,80.81 -259.92,90.36 -389.89,-2.12z"/>
   <path class="fil0" d="M623.05 502.16c122.12,-82.2 241.13,-69.96 358.13,1.92 -119.39,74.23 -238.78,83.01 -358.13,-1.92z"/>
  </g>
  <g id="_1669014082640">
   <path class="fil0" d="M575.16 579.39c157.27,30.76 239.43,131.79 274.2,277.17 -149.04,-34.77 -247.71,-119.89 -274.2,-277.17z"/>
   <path class="fil0" d="M586.25 590.75c144.49,28.26 219.95,121.04 251.87,254.6 -136.91,-31.92 -227.54,-110.15 -251.87,-254.6z"/>
  </g>
  <g id="_1669014084944">
   <path class="fil0" d="M420.08 427.28c-157.27,-30.76 -239.43,-131.79 -274.2,-277.17 149.04,34.77 247.71,119.89 274.2,277.17z"/>
   <path class="fil0" d="M408.99 415.92c-144.49,-28.26 -219.95,-121.04 -251.87,-254.6 136.91,31.92 227.54,110.11 251.87,254.6z"/>
  </g>
  <g id="_1669014089552">
   <path class="fil0" d="M578.7 425.78c30.76,-157.27 131.79,-239.43 277.17,-274.2 -34.77,149.04 -119.89,247.71 -277.17,274.2z"/>
   <path class="fil0" d="M590.06 414.69c28.26,-144.49 121.04,-219.95 254.6,-251.87 -31.92,136.91 -110.15,227.54 -254.6,251.87z"/>
  </g>
  <g id="_1669014094112">
   <path class="fil0" d="M423.24 584.25c-30.76,157.27 -131.79,239.43 -277.17,274.2 34.77,-149.04 119.89,-247.71 277.17,-274.2z"/>
   <path class="fil0" d="M411.88 595.33c-28.26,144.49 -121.04,219.95 -254.6,251.87 31.92,-136.91 110.15,-227.54 254.6,-251.87z"/>
  </g>
  <circle class="fil0" cx="502.01" cy="504.13" r="79.23"/>
  <circle class="fil0 str0" cx="502.01" cy="504.13" r="71.3"/>
 </g>
</svg>
